<?xml version="1.0" encoding="utf-8"?>
<!-- Generator: Adobe Illustrator 24.0.1, SVG Export Plug-In . SVG Version: 6.00 Build 0)  -->
<svg version="1.1" id="Capa_1" xmlns="http://www.w3.org/2000/svg" xmlns:xlink="http://www.w3.org/1999/xlink" x="0px" y="0px"
	 viewBox="0 0 100 100" style="enable-background:new 0 0 100 100;" xml:space="preserve">
<style type="text/css">
	.st0{fill:url(#SVGID_1_);}
	.st1{fill:#D8D9DD;}
	.st2{fill:#FFFFFF;}
</style>
<g>
	<g>
		<g>
			<g>
				<linearGradient id="SVGID_1_" gradientUnits="userSpaceOnUse" x1="0.8881" y1="50.0189" x2="98.9656" y2="50.0189">
					<stop  offset="3.570680e-02" style="stop-color:#32BA46"/>
					<stop  offset="0.39" style="stop-color:#35BC48"/>
					<stop  offset="0.621" style="stop-color:#3DC450"/>
					<stop  offset="0.8162" style="stop-color:#4CD05E"/>
					<stop  offset="0.99" style="stop-color:#61E271"/>
				</linearGradient>
				<path class="st0" d="M99,49.3c0-12.6-4.7-24.2-12.5-32.9C77.4,6.9,64.7,1,50.6,1C23.1,1,0.9,23.3,0.9,50.7
					c0,12.6,4.7,24.2,12.5,32.9c9,9.5,21.8,15.4,35.9,15.4C76.7,99,99,76.8,99,49.3z"/>
			</g>
			<g>
				<g>
					<path class="st1" d="M93.9,27.5c2.7,6.2,4.3,13,4.3,20.2c0,27.4-22.2,49.7-49.7,49.7c-16.5,0-31.1-8-40.1-20.4
						c1.5,2.3,3.1,4.6,4.9,6.6c9,9.5,21.8,15.4,35.9,15.4C76.7,99,99,76.8,99,49.3C99,41.5,97.2,34.1,93.9,27.5z"/>
				</g>
			</g>
		</g>
	</g>
	<g>
		<g>
			<path class="st2" d="M50,74.5c-4.6,0-9.2-1.2-13.2-3.6l-10.3,3.6l2.1-11c-3.3-4.6-5.1-9.9-5.1-15.6c0-14.6,11.9-26.6,26.6-26.6
				c14.6,0,26.6,11.9,26.6,26.6C76.6,62.6,64.7,74.5,50,74.5z M37.3,66.6l0.8,0.5c3.6,2.3,7.7,3.5,12,3.5
				c12.5,0,22.6-10.1,22.6-22.6c0-12.5-10.1-22.6-22.6-22.6c-12.5,0-22.6,10.1-22.6,22.6c0,5.1,1.7,9.9,4.8,13.9l0.6,0.7l-1.2,6
				L37.3,66.6z"/>
		</g>
		<path class="st2" d="M36.6,37.7c0,0,1.6-2.7,2.8-2.9c1.3-0.2,2.9-0.2,3.3,0.7c0.4,0.8,2.4,5.7,2.4,5.7s0.3,0.8-0.2,1.6
			c-0.5,0.8-1.7,2-1.7,2s-0.6,0.8,0,1.7c0.6,0.9,1.7,2.5,3.7,4.6c2.1,2.1,6.1,3.6,6.1,3.6s0.6,0.1,0.9-0.3c0.4-0.4,2.3-2.8,2.3-2.8
			s0.6-0.8,1.7-0.3c1,0.5,5.6,2.7,5.6,2.7s0.5,0.2,0.5,1c0,0.8-0.3,2.8-1,3.4c-0.7,0.7-2.6,2.7-5.5,2.7c-2.9,0-9.9-2.4-13.6-6.1
			c-3.7-3.7-7-7.5-7.8-10.9C35.6,40.7,35.7,39.1,36.6,37.7z"/>
	</g>
</g>
</svg>
